# xmcd
#
# Track frame offsets:
# 150
# 17279
# 38185
# 57447
# 79871
# 100317
# 122281
# 145425
# 163322
# 175825
# 190856
# 204932
# 221318
#
# Disc length: 3195 seconds
#
# Revision: 1
# Processed by: cddbd v1.4PL0 Copyright (c) Steve Scherf et al.
# Submitted via: CedeCatalogueitor 2.5 http://usuarios.lycos.es/kakasboy
#
DISCID=ab0c790d
DTITLE=Julio Iglesias - Noche De Cuatro Lunas
DYEAR=2000
DGENRE=Latino
TTITLE0=Gozar La Vida
TTITLE1=Dia A Dia
TTITLE2=Me Siento De Aquí
TTITLE3=Te Voy A Contar Mi Vida
TTITLE4=No Es Amor Ni Es Amar
TTITLE5=Corazón Partío
TTITLE6=Seremos Libres
TTITLE7=Dos Corazones, Dos Historias
TTITLE8=Mal Acostumbrado
TTITLE9=Vida
TTITLE10=Mamacita
TTITLE11=La Empalizada
TTITLE12=Noche De Cuatro Lunas
EXTD=
EXTT0=
EXTT1=
EXTT2=
EXTT3=
EXTT4=
EXTT5=
EXTT6=
EXTT7=
EXTT8=
EXTT9=
EXTT10=
EXTT11=
EXTT12=
PLAYORDER=
